<?xml version="1.0" encoding="UTF-8" standalone="no"?>
<svg
   xmlns:dc="http://purl.org/dc/elements/1.1/"
   xmlns:cc="http://creativecommons.org/ns#"
   xmlns:rdf="http://www.w3.org/1999/02/22-rdf-syntax-ns#"
   xmlns:svg="http://www.w3.org/2000/svg"
   xmlns="http://www.w3.org/2000/svg"
   xmlns:sodipodi="http://sodipodi.sourceforge.net/DTD/sodipodi-0.dtd"
   xmlns:inkscape="http://www.inkscape.org/namespaces/inkscape"
   width="300"
   height="300"
   viewBox="0 0 20.40948 20.410566"
   version="1.1"
   id="svg6"
   sodipodi:docname="embratel.svg"
   inkscape:version="1.0.2 (e86c870879, 2021-01-15, custom)">
  <metadata
     id="metadata12">
    <rdf:RDF>
      <cc:Work
         rdf:about="">
        <dc:format>image/svg+xml</dc:format>
        <dc:type
           rdf:resource="http://purl.org/dc/dcmitype/StillImage" />
        <dc:title></dc:title>
      </cc:Work>
    </rdf:RDF>
  </metadata>
  <defs
     id="defs10" />
  <sodipodi:namedview
     pagecolor="#ffffff"
     bordercolor="#666666"
     borderopacity="1"
     objecttolerance="10"
     gridtolerance="10"
     guidetolerance="10"
     inkscape:pageopacity="0"
     inkscape:pageshadow="2"
     inkscape:window-width="1280"
     inkscape:window-height="961"
     id="namedview8"
     showgrid="false"
     inkscape:zoom="0.9"
     inkscape:cx="181.63059"
     inkscape:cy="327.27814"
     inkscape:window-x="-8"
     inkscape:window-y="32"
     inkscape:window-maximized="1"
     inkscape:current-layer="svg6" />
  <path
     d="M 9.0774031,7.1232457 9.0040786,7.3144992 C 8.5518915,7.4640482 8.1565877,7.577884 7.9104529,7.6638777 L 8.1144651,7.1244204 Z m 7.0020609,3.9591123 0.08496,-0.226731 c 0.06013,-0.160475 0.09024,-0.263738 0.09024,-0.310729 0,-0.04652 -0.02724,-0.07013 -0.08124,-0.07013 -0.06696,0 -0.115808,0.02044 -0.146889,0.06085 -0.03048,0.039 -0.07825,0.145672 -0.143769,0.320009 l -0.08496,0.226732 z m 0.777287,0.504567 h -1.247955 l -0.251416,0.670562 c -0.05257,0.140386 -0.07621,0.230491 -0.07068,0.271256 0.0055,0.04041 0.03768,0.06074 0.09661,0.06074 0.0732,0 0.131648,-0.02655 0.17545,-0.07965 0.04585,-0.05428 0.09769,-0.15883 0.155649,-0.313078 l 0.153009,-0.408822 h 0.914216 l -0.08581,0.229081 c -0.07176,0.191606 -0.139688,0.338923 -0.203652,0.441481 -0.06253,0.102793 -0.161049,0.212635 -0.295458,0.329642 a 1.4086447,1.3789523 0 0 1 -0.444987,0.263855 c -0.16009,0.05768 -0.344901,0.08635 -0.555034,0.0867 -0.203772,0 -0.372743,-0.02902 -0.50727,-0.0867 -0.134288,-0.05756 -0.226454,-0.136156 -0.276497,-0.236012 -0.04812,-0.101149 -0.06625,-0.211695 -0.05485,-0.33164 0.01236,-0.121472 0.06145,-0.297453 0.14785,-0.527944 l 0.33902,-0.904108 c 0.101642,-0.271021 0.218893,-0.48436 0.352101,-0.640253 0.133568,-0.15742 0.301218,-0.27713 0.50247,-0.359716 a 1.6005363,1.566799 0 0 1 0.63448,-0.1262886 c 0.270376,0 0.474029,0.05075 0.611438,0.1518986 0.139327,0.09986 0.212532,0.232958 0.220212,0.399541 0.0095,0.165056 -0.04188,0.398014 -0.154688,0.698522 z M 15.006,9.5825224 14.823109,10.070876 h 0.260176 l -0.183852,0.490704 h -0.260176 l -0.621997,1.658902 c -0.07656,0.203941 -0.108726,0.317776 -0.09685,0.34092 0.01344,0.0235 0.09888,0.03524 0.256576,0.03524 l -0.187451,0.499984 h -0.389184 c -0.219253,0 -0.372862,-0.0086 -0.460468,-0.02585 -0.087,-0.01856 -0.154089,-0.06003 -0.201851,-0.123821 -0.04704,-0.06532 -0.06397,-0.139563 -0.05028,-0.222033 0.01392,-0.08423 0.07861,-0.280301 0.194532,-0.588798 l 0.590196,-1.57467 H 13.464867 L 13.648718,10.07075 H 13.85633 L 14.039461,9.5823964 H 15.006 Z m -3.077225,2.0445796 c -0.195972,0.110664 -0.32054,0.203354 -0.374063,0.278187 -0.05172,0.0746 -0.104046,0.182208 -0.156609,0.322241 -0.06013,0.160475 -0.08857,0.26409 -0.08544,0.310846 0.0046,0.04664 0.039,0.07013 0.102486,0.07013 0.06061,0 0.106326,-0.01797 0.137048,-0.0538 0.03324,-0.03724 0.07896,-0.133925 0.137408,-0.289817 z m -0.146049,-0.425151 h -0.904615 l 0.07788,-0.207818 c 0.08988,-0.23989 0.186971,-0.424447 0.291257,-0.553907 0.106327,-0.130753 0.263296,-0.246116 0.471029,-0.345737 0.207492,-0.09974 0.447267,-0.1494306 0.719323,-0.1494306 0.32618,0 0.550714,0.05686 0.673841,0.1704596 0.123247,0.112191 0.170769,0.250932 0.142208,0.415988 -0.02785,0.163529 -0.137769,0.501747 -0.329899,1.013832 l -0.58323,1.556108 h -0.938097 l 0.103446,-0.27572 c -0.100447,0.110664 -0.207972,0.193838 -0.322819,0.25011 a 0.81364894,0.79649826 0 0 1 -0.362542,0.08177 c -0.168491,0 -0.306618,-0.04617 -0.413425,-0.138036 -0.105126,-0.09351 -0.09901,-0.296749 0.01848,-0.609709 l 0.09529,-0.254692 c 0.08688,-0.232018 0.183611,-0.390025 0.289937,-0.474139 0.106326,-0.08423 0.32858,-0.182325 0.66664,-0.294517 0.362062,-0.121471 0.562234,-0.203236 0.600277,-0.24541 0.03804,-0.04194 0.08112,-0.127581 0.129728,-0.257041 0.06084,-0.161885 0.08748,-0.266792 0.08005,-0.315428 -0.0052,-0.04981 -0.03636,-0.07472 -0.09373,-0.07472 -0.06516,0 -0.113526,0.02115 -0.145328,0.0632 -0.03109,0.04041 -0.07884,0.146965 -0.143889,0.320009 z M 10.587214,9.9961604 10.396642,10.40275 c 0.249136,-0.291227 0.509791,-0.4455916 0.781967,-0.4627436 l -0.408985,1.0912496 c -0.17653,0 -0.315138,0.02314 -0.415224,0.07002 -0.100447,0.04664 -0.175571,0.112191 -0.226214,0.196422 -0.05004,0.08247 -0.1315278,0.274075 -0.2443348,0.574701 L 9.4250639,13.096747 H 8.460686 L 9.6230759,9.9962784 h 0.9641381 z m 9.052745,-2.336042 -0.0056,0.014802 c -0.193973,0.287233 -0.662121,0.624863 -1.341961,0.876031 l 0.328579,-0.8871912 0.01284,-0.00364 z M 4.2172307,9.9961604 4.090143,10.290559 c 0.1184471,-0.11689 0.2401346,-0.203941 0.365182,-0.261622 a 0.88517325,0.86651493 0 0 1 0.3864233,-0.08905 c 0.2578955,0 0.4170251,0.1170066 0.4773886,0.3505526 0.1250476,-0.116891 0.2491351,-0.203941 0.3725025,-0.261623 0.1240874,-0.05933 0.2479349,-0.0887 0.3722623,-0.08905 0.16393,0 0.2844172,0.03912 0.3618219,0.1170076 0.079205,0.07801 0.1124467,0.173632 0.099966,0.287115 -0.011761,0.112191 -0.065164,0.295339 -0.1604495,0.54909 L 5.5393503,13.096395 H 4.604014 l 0.7574855,-2.02085 c 0.099246,-0.26503 0.1510892,-0.428324 0.1554094,-0.490822 0.00636,-0.06379 -0.024002,-0.09551 -0.090606,-0.09586 -0.068404,0 -0.1248076,0.03137 -0.1687302,0.09363 -0.042483,0.06226 -0.1136469,0.226615 -0.2132528,0.493054 l -0.7577256,2.02085 H 3.3510186 L 4.089543,11.126649 c 0.1138869,-0.303679 0.1741305,-0.486004 0.1809709,-0.54674 0.00852,-0.06074 -0.021481,-0.09105 -0.089885,-0.09105 -0.042963,0 -0.085806,0.01656 -0.1282877,0.04899 -0.042002,0.03148 -0.073204,0.07049 -0.093726,0.117007 -0.020282,0.04523 -0.058204,0.142501 -0.1143669,0.291932 L 3.0386398,13.096395 H 2.1030635 L 3.2650934,9.9959254 h 0.9521373 z"
     fill="#1a3b73"
     id="path2"
     style="stroke-width:1" />
  <path
     d="m 7.9876175,10.880062 c 0.060123,-0.160122 0.088925,-0.264677 0.086165,-0.31296 -0.00192,-0.04969 -0.033122,-0.0746 -0.093606,-0.0746 -0.058803,0 -0.1052464,0.02173 -0.1389684,0.06532 -0.033362,0.04206 -0.082325,0.149431 -0.1472486,0.322241 l -0.5007897,1.336543 c -0.062524,0.166818 -0.093126,0.27337 -0.091446,0.320126 0.003,0.04676 0.033962,0.07002 0.093005,0.07002 0.060363,0 0.1082465,-0.02385 0.1438886,-0.07237 0.037443,-0.04805 0.090367,-0.164233 0.1592504,-0.347968 z M 8.8575499,7.7031152 7.9446549,10.211967 c 0.1132868,-0.09046 0.2266936,-0.15742 0.3402205,-0.201005 a 0.92405558,0.90457767 0 0 1 0.3451407,-0.06767 c 0.131888,0 0.2389344,0.02009 0.3207794,0.06074 0.081845,0.04041 0.1346481,0.09739 0.1579294,0.170461 0.023522,0.07319 0.027001,0.144614 0.010321,0.214984 -0.015121,0.07013 -0.065764,0.219565 -0.1515691,0.448294 l -0.5237119,1.397396 c -0.085205,0.227554 -0.1648899,0.39731 -0.2386944,0.509383 -0.071884,0.110429 -0.1802507,0.207113 -0.3258195,0.289583 -0.1449688,0.08106 -0.2960578,0.121589 -0.4536273,0.121589 -0.1130468,0 -0.2098927,-0.0242 -0.2901775,-0.07248 C 7.0563612,13.035192 6.9945578,12.96271 6.9495551,12.866026 L 6.799786,13.099684 H 5.8978118 L 7.8288479,7.8753374 c -0.6605197,0.064025 -1.2622359,0.160005 -1.9998003,0.27619 0,0 0.1712503,-0.05357 0.2857373,-0.08341 l 0.090846,-0.0235 C 6.8755106,7.8908444 7.3135369,7.7904011 7.9226936,7.6598834 8.329998,7.5654314 8.8969122,7.4589967 9.3887018,7.386278 15.189371,6.5303361 20.32988,6.6547449 20.409085,7.5144461 20.431165,7.7521034 20.062384,8.0259434 19.394784,8.3134114 L 17.604156,13.09663 h -0.992939 l 1.680221,-4.5430946 c 0.426625,-0.08987 0.891173,-0.230021 1.153509,-0.374049 C 19.678121,8.0513184 19.776407,7.887555 19.764406,7.756685 19.688922,6.9369262 14.789266,6.8129873 9.2572939,7.6294567 9.1321264,7.6479007 8.9792372,7.6865508 8.8575499,7.7031152 Z M 3.1419661,9.4211074 H 2.327237 L 2.0016574,10.292556 H 2.7641833 L 2.4375236,11.166472 H 1.6747578 L 1.297095,12.176897 H 2.193189 L 1.8492482,13.096512 H -5.43e-4 L 1.2901346,9.6430234 c -0.64119853,0.271843 -0.98501921,0.4735516 -0.94529683,0.6853636 0.017161,0.09222 0.232574,0.234015 0.37742267,0.304385 C 0.39980108,10.539732 0.21366988,10.419902 0.18678826,10.27423 0.13986546,10.022005 0.57021133,9.7226724 1.3812201,9.3782284 l 0.3329,-0.879555 h 1.5148511 c -0.5753146,0.263972 -1.2645161,0.600193 -1.7073427,0.827865 0.4953898,-0.198772 1.1976721,-0.454873 1.9118351,-0.68184 z"
     fill="#1a3b73"
     id="path4"
     style="stroke-width:1" />
</svg>
