<?xml version="1.0" encoding="UTF-8" standalone="no"?>
<svg
   xmlns:dc="http://purl.org/dc/elements/1.1/"
   xmlns:cc="http://creativecommons.org/ns#"
   xmlns:rdf="http://www.w3.org/1999/02/22-rdf-syntax-ns#"
   xmlns:svg="http://www.w3.org/2000/svg"
   xmlns="http://www.w3.org/2000/svg"
   xmlns:sodipodi="http://sodipodi.sourceforge.net/DTD/sodipodi-0.dtd"
   xmlns:inkscape="http://www.inkscape.org/namespaces/inkscape"
   width="300pt"
   height="300pt"
   viewBox="0 0 300 300"
   version="1.1"
   id="svg33"
   sodipodi:docname="saúdeCaixa.svg"
   inkscape:version="1.0.2 (e86c870879, 2021-01-15, custom)">
  <metadata
     id="metadata39">
    <rdf:RDF>
      <cc:Work
         rdf:about="">
        <dc:format>image/svg+xml</dc:format>
        <dc:type
           rdf:resource="http://purl.org/dc/dcmitype/StillImage" />
        <dc:title></dc:title>
      </cc:Work>
    </rdf:RDF>
  </metadata>
  <defs
     id="defs37" />
  <sodipodi:namedview
     pagecolor="#ffffff"
     bordercolor="#666666"
     borderopacity="1"
     objecttolerance="10"
     gridtolerance="10"
     guidetolerance="10"
     inkscape:pageopacity="0"
     inkscape:pageshadow="2"
     inkscape:window-width="1280"
     inkscape:window-height="961"
     id="namedview35"
     showgrid="false"
     inkscape:zoom="1.002725"
     inkscape:cx="160.86284"
     inkscape:cy="277.51884"
     inkscape:window-x="-8"
     inkscape:window-y="32"
     inkscape:window-maximized="1"
     inkscape:current-layer="svg33" />
  <g
     id="surface1"
     transform="matrix(0.46839439,0,0,0.46697918,10.485813,97.201725)"
     style="stroke-width:2.13818">
    <path
       style="fill:#eea300;fill-opacity:1;fill-rule:evenodd;stroke:none;stroke-width:5.94236"
       d="m 340.73828,23.175781 c 0,18.636719 -0.30078,39.648438 -0.0273,57.96875 l 0.15625,1.75 c 0.0117,1.5 8.47656,0.976563 10.63281,0.976563 9.65234,0 21.67578,0.75 29.79297,-3.5625 10.32422,-5.488281 17.18359,-13.738281 18.27344,-25.90625 0.83593,-9.320313 -0.70313,-10.195313 -1.94922,-14.496094 -0.77735,-2.691406 -3.08203,-6.730469 -4.90625,-8.828125 -3.02344,-3.480469 -6.63282,-6.453125 -10.53516,-8.679687 -0.92578,-0.523438 -2.98047,-1.125 -4.03906,-1.519532 -9.29297,-3.472656 -20.86328,-2.125 -31.0625,-2.125 -7.16406,-0.0039 -6.33594,-0.699218 -6.33594,4.421875 z m 18.05078,10.320313 C 358,34.3125 358.44531,63.109375 358.44141,66.667969 c -0.0391,1.878906 -0.42188,2.335937 1.14453,2.65625 3.63672,0.734375 11.4375,-0.8125 15.24218,-3.347656 3.5625,-2.371094 6.15235,-7.742188 6.67579,-11.730469 C 382.92578,43.359375 376.1875,35.128906 365.67969,33.320313 364.39453,33.101563 359.75,32.5 358.78906,33.496094 Z m 0,0"
       id="path2" />
    <path
       style="fill:#eea300;fill-opacity:1;fill-rule:evenodd;stroke:none;stroke-width:5.94236"
       d="m 196.20703,84.410156 17.75391,0.07813 4.74218,-11.320312 23.81641,-0.09375 4.92969,11.386719 18.01953,0.0039 c 0.12891,-3.703125 -22.10547,-58.179688 -25.02344,-65.675781 l -19.40234,-0.01563 z M 224.1875,59.984375 c 1.24219,-0.03125 13.43359,-0.304687 13.51172,-0.363281 l -7.06641,-18.457031 z m 0,0"
       id="path4" />
    <path
       style="fill:#eea300;fill-opacity:1;fill-rule:evenodd;stroke:none;stroke-width:5.94236"
       d="m 288.52344,19.300781 -17.5625,-0.144531 c -1.59375,7.457031 -0.3125,42.953125 1.11328,49.148438 5.26953,22.917968 51.87109,24.707031 56.97656,-1.960938 0.73438,-3.828125 1.26953,-45.074219 0.27734,-47.253906 -1.33203,-0.726563 -14.35156,-0.46875 -16.80078,-0.242188 -2.08203,7.207032 1.4961,35.097657 -1.84765,45.367188 -3.3125,10.1875 -21.29688,8.289062 -22.05469,-4.671875 -0.15625,-2.625 -0.0781,-5.488281 -0.082,-8.136719 -0.004,-10.632812 0.23047,-21.503906 -0.0195,-32.105469 z m 0,0"
       id="path6" />
    <path
       style="fill:#eea300;fill-opacity:1;fill-rule:evenodd;stroke:none;stroke-width:5.94236"
       d="m 144.04297,79.046875 c 10.57031,7.953125 23.62109,8.492188 35.90625,4.921875 11.88281,-3.457031 17.51172,-22.804687 11.03906,-30.292969 -7.19141,-8.316406 -13.3125,-8.625 -23.30469,-12.160156 -8.10937,-4.578125 -1.42968,-13.617187 12.30469,-8.285156 0.82422,0.324219 1.04297,0.375 1.69141,0.855469 3.07812,2.289062 8.20312,-10.125 8.3164,-12.023438 -2.80078,-1.871094 -14.28125,-4.992187 -17.38672,-5.175781 -29.85937,-1.753906 -38.8125,34.9375 -8.17187,40.921875 3.50391,0.683594 10.06641,2.875 10.35547,6.957031 0.42187,5.933594 -5.10156,7.265625 -9.96094,7.015625 -3.90234,-0.199219 -7.76953,-2.828125 -11.10547,-4.695312 z m 0,0"
       id="path8" />
    <path
       style="fill:#eea300;fill-opacity:1;fill-rule:evenodd;stroke:none;stroke-width:5.94236"
       d="M 407.96094,83.691406 445.40625,83.554688 445.75,69.800781 425.83203,69.414063 c -0.375,-1.078125 -0.57422,-9.296875 -0.13672,-10.96875 l 19.4375,-0.410157 -0.0859,-13.894531 c -0.71484,-0.65625 -0.21484,-0.398437 -1.66406,-0.507812 -3.3125,0.0078 -15.52734,0.519531 -17.4375,-0.300782 -0.78125,-0.675781 -0.42969,-9.191406 -0.34765,-10.179687 l 20.54687,-0.05469 0.12109,-14.207031 -38.17578,-0.128906 z m 0,0"
       id="path10" />
    <path
       style="fill:#eea300;fill-opacity:1;fill-rule:evenodd;stroke:none;stroke-width:5.94236"
       d="M 294.56641,13.28125 298.75,17.429688 316.17969,4.972656 c 0.043,-0.9375 -4.32032,-4.171875 -5.4375,-5.035156 z m 0,0"
       id="path12" />
    <path
       style="fill:#f07a00;fill-opacity:1;fill-rule:evenodd;stroke:none;stroke-width:5.94236"
       d="M 617.66406,29.628906 C 523.45312,154.38281 90.210938,174.97656 -22.386719,24.136719 95.878906,126.02734 477.32812,132.43359 617.66406,29.628906 Z m 0,0"
       id="path14" />
    <path
       style="fill:#0061a6;fill-opacity:1;fill-rule:evenodd;stroke:none;stroke-width:5.94236"
       d="m 381.64062,220.30469 h 22.66016 l 4.81641,-8.52735 c 0.24218,-0.42187 0.3789,-1.08984 0.91015,-1.08984 l 21.14453,0.0234 1.15625,9.57812 0.57032,0.0273 c 6.28515,0.15625 15.23828,0.0195 21.77734,-0.008 0,-1.24609 -2.30078,-16.34375 -2.54297,-18.0664 -0.84375,-6.00391 -1.71875,-11.9375 -2.63281,-18.07032 l -4.89844,-33.9414 c -0.0625,-0.42969 -0.12109,-0.76172 -0.17187,-1.14063 -0.0859,-0.625 0.008,-0.98047 -0.67578,-0.98047 l -25.00782,0.004 c -0.34765,1.02344 -1.66406,3.41016 -2.25781,4.45703 -1.76172,3.13281 -5.35156,10.29688 -6.98437,13.5586 -3.0625,6.10156 -6.27344,11.92578 -9.33594,18.04687 -4.42188,8.82422 -9.48047,18.07813 -13.9375,26.99609 -0.69531,1.39454 -4.45313,8.42188 -4.58985,9.13282 z m 36.72266,-27.72657 10.94141,0.043 c 0.10156,-0.51562 -1.45313,-18.36718 -1.89063,-20.8789 z m 0,0"
       id="path16" />
    <path
       style="fill:#0061a6;fill-opacity:1;fill-rule:evenodd;stroke:none;stroke-width:5.94236"
       d="m 192.40625,220.28516 0.5625,0.0312 c 6.33203,0.15234 15.53906,0.0352 22.10156,-0.008 1.29688,-2.46093 4.61719,-7.92578 5.39844,-9.60937 l 21.47656,-0.0156 1.16016,9.58594 22.34375,0.043 -10.39063,-72.1875 -25.55468,-0.004 -18.57813,36.07422 c -0.76953,1.35547 -1.60156,3 -2.28906,4.40235 l -6.97656,13.57421 c -1.54688,3.00391 -3.07813,5.9961 -4.67579,9.01563 -0.66796,1.26562 -4.46484,8.36719 -4.57812,9.09766 z m 36.78516,-27.66407 10.9414,-0.004 -1.91797,-20.90235 -6.8164,15.57032 c -0.44141,0.98437 -2.19922,4.61718 -2.20703,5.33593 z m 0,0"
       id="path18" />
    <path
       style="fill:#0061a6;fill-opacity:1;fill-rule:evenodd;stroke:none;stroke-width:5.94236"
       d="m 141.00781,185.59375 -0.41015,7.98437 c 0.54687,1.22266 -0.19141,7.52344 4.32031,15.14454 5.5625,9.40234 15.20312,13.53906 26.39844,12.45703 5.98828,-0.57422 10.3789,-2.32813 15.38671,-4.70703 l 3.25,-21.28516 c -0.6289,0.11328 -1.12109,0.91016 -1.67187,1.40234 -1.48438,1.32032 -4.12109,2.84375 -6.13281,3.55078 -10.88282,3.83594 -20.62891,-4.09375 -18.07032,-17.35546 2.71094,-14.05079 19.58594,-21.60157 27.94141,-12.5 0.24219,0.26171 0.50391,0.51171 0.74609,0.85546 0.23047,0.32422 0.26172,0.64454 0.72266,0.76563 l 3.28516,-21.31641 c -0.7461,-0.19922 -1.89844,-0.89453 -2.7461,-1.2539 -2.63672,-1.12891 -3.25781,-1.29688 -6,-2.01563 -0.92968,-0.24609 -2.72656,-0.27734 -3.42968,-0.67578 h -7.1211 c -0.91406,0.49609 -9.94922,0.3125 -19.51172,8.28906 l -5.94922,5.83985 c -2.46484,2.77343 -4.92578,6.57812 -6.55859,10 -1.94922,4.09375 -2.64062,6.46093 -3.66016,10.78515 l -0.74218,3.90625 c -0.004,-0.0195 -0.0234,0.0898 -0.0469,0.12891 z m 0,0"
       id="path20" />
    <path
       style="fill:#0061a6;fill-opacity:1;fill-rule:evenodd;stroke:none;stroke-width:5.94236"
       d="m 275.89062,220.30859 22.53516,0.004 13.41016,-72.19531 -22.28907,-0.008 c -0.52734,0.12891 -0.57421,1.51954 -0.65234,1.94141 l -1.25,6.80469 c -0.57031,3.08203 -1.125,6.00781 -1.69531,9.09765 z m 0,0"
       id="path22" />
    <path
       style="fill:#ee7800;fill-opacity:1;fill-rule:evenodd;stroke:none;stroke-width:5.94236"
       d="m 344.98828,207.83594 c 0.22266,-0.67188 3.52344,-4.61719 4.20313,-5.46094 l 8.5039,-10.59766 c 0.64453,-0.8125 3.82813,-4.85156 4.30469,-5.21093 -0.13281,-0.0859 -0.10156,-0.0937 -0.38281,-0.15625 l -14.16016,-0.0391 c -4.74219,0 -9.94531,-0.21484 -14.64453,0.0234 -0.4375,0.69922 -1.07031,1.44531 -1.61328,2.08984 l -3.34766,4.19922 c -0.63672,0.8125 -1.16015,1.36719 -1.71875,2.13282 l -5.0039,6.24218 c -2.67579,3.03516 -5.78516,7.34375 -8.4336,10.51172 -1.17969,1.41016 -2.1875,2.74219 -3.36328,4.17969 l -2.46484,3.08203 c -0.35547,0.45313 -0.62891,0.66016 -0.88282,1.19922 l 28.94141,0.0117 c 0.32031,-0.13281 0.16406,-0.0664 0.39453,-0.26563 z m 0,0"
       id="path24" />
    <path
       style="fill:#0061a6;fill-opacity:1;fill-rule:evenodd;stroke:none;stroke-width:5.94236"
       d="m 364.07422,181.45703 c -0.17969,-0.79687 -6.82813,-13.84766 -7.76563,-15.66016 l -2.55078,-5.21093 -6.40234,-12.82813 -27.14844,-0.008 c 0.0156,0.63281 3.54297,7.375 4.10156,8.51172 l 11.65625,23.18359 c 0.2461,0.4961 0.70313,1.89844 1.23047,2.01563 z m 0,0"
       id="path26" />
    <path
       style="fill:#ee7800;fill-opacity:1;fill-rule:evenodd;stroke:none;stroke-width:5.94236"
       d="m 353.75781,160.58594 2.55078,5.21093 c 0.9375,1.8125 7.58594,14.86329 7.76563,15.66016 2.41406,0.0156 1.83984,0.38281 3.65234,-1.97266 0.50391,-0.65625 1.125,-1.40625 1.73047,-2.11328 l 21.9375,-27.03515 c 0.59766,-0.73438 1.17969,-1.31641 1.60938,-2.09375 l -29.14454,-0.043 c -0.38671,0.47656 -9.60546,12 -10.10156,12.38672 z m 0,0"
       id="path28" />
    <path
       style="fill:#0061a6;fill-opacity:1;fill-rule:evenodd;stroke:none;stroke-width:5.94236"
       d="m 344.98828,207.83594 6.29688,11.99218 28.24609,0.0234 c -0.17969,-0.8125 -1.66797,-3.35547 -2.11328,-4.19922 -0.76563,-1.44922 -1.4336,-2.7539 -2.21094,-4.17578 -1.00391,-1.83203 -12.75781,-24.49219 -13.20703,-24.91015 -0.47656,0.35937 -3.66016,4.39843 -4.30469,5.21093 l -8.5039,10.59766 c -0.67969,0.84375 -3.98047,4.78906 -4.20313,5.46094 z m 0,0"
       id="path30" />
  </g>
</svg>
